<svg width="159" height="32" viewBox="0 0 159 32" fill="none" xmlns="http://www.w3.org/2000/svg">
<path d="M42.9842 21.2475C41.8381 20.6094 40.9148 19.7161 40.2463 18.5676C39.5777 17.419 39.2275 16.1428 39.2275 14.6752C39.2275 13.2395 39.5777 11.9634 40.2463 10.8148C40.9148 9.66627 41.8381 8.77295 42.9842 8.13486C44.1303 7.49678 45.4037 7.17773 46.7727 7.17773C48.1734 7.17773 49.415 7.49678 50.5611 8.13486C51.7072 8.77295 52.5986 9.66627 53.2672 10.8148C53.9357 11.9634 54.2541 13.2395 54.2541 14.6752C54.2541 16.1109 53.9357 17.419 53.2672 18.5676C52.5986 19.7161 51.7072 20.6094 50.5293 21.2475C49.3832 21.8856 48.1098 22.2047 46.7408 22.2047C45.4037 22.2047 44.1303 21.8856 42.9842 21.2475ZM49.0967 18.9823C49.7652 18.5676 50.3064 18.0252 50.6885 17.2595C51.0705 16.5257 51.2615 15.6643 51.2615 14.6752C51.2615 13.6862 51.0705 12.8248 50.6885 12.091C50.3064 11.3572 49.7971 10.7829 49.0967 10.4001C48.4281 10.0172 47.6322 9.82579 46.7727 9.82579C45.8812 9.82579 45.1172 10.0172 44.4168 10.4001C43.7482 10.7829 43.207 11.3572 42.825 12.091C42.443 12.8248 42.252 13.6862 42.252 14.6752C42.252 15.6643 42.443 16.5257 42.825 17.2595C43.207 17.9933 43.7482 18.5676 44.4168 18.9823C45.0854 19.3971 45.8812 19.5885 46.7727 19.5885C47.6641 19.5885 48.4281 19.3652 49.0967 18.9823Z" fill="#212529"/>
<path d="M60.9713 10.7514C61.6398 10.4004 62.4039 10.209 63.2635 10.209C64.2504 10.209 65.1736 10.4642 65.9695 10.9428C66.7654 11.4213 67.4022 12.1232 67.8797 13.0485C68.3572 13.9418 68.5801 14.9946 68.5801 16.207C68.5801 17.4194 68.3572 18.4722 67.8797 19.3655C67.4022 20.2907 66.7654 20.9926 65.9695 21.5031C65.1736 22.0136 64.2504 22.2688 63.2635 22.2688C62.4039 22.2688 61.6398 22.0774 61.0031 21.7264C60.3664 21.3755 59.8252 20.9288 59.4113 20.3865V27.6287H56.4824V10.4004H59.4113V12.0913C59.7934 11.549 60.3027 11.1023 60.9713 10.7514ZM65.1418 14.3565C64.8553 13.8461 64.4732 13.4632 63.9957 13.1761C63.5182 12.9208 63.0088 12.7613 62.4676 12.7613C61.9264 12.7613 61.4488 12.8889 60.9713 13.1761C60.4938 13.4632 60.1117 13.8461 59.8252 14.3565C59.5387 14.867 59.3795 15.4732 59.3795 16.1751C59.3795 16.877 59.5387 17.4832 59.8252 17.9936C60.1117 18.5041 60.4938 18.9189 60.9713 19.1741C61.4488 19.4612 61.9264 19.5888 62.4676 19.5888C63.0088 19.5888 63.5182 19.4612 63.9957 19.1741C64.4732 18.887 64.8553 18.5041 65.1418 17.9617C65.4283 17.4513 65.5875 16.8132 65.5875 16.1113C65.5557 15.4732 65.4283 14.867 65.1418 14.3565Z" fill="#212529"/>
<path d="M81.4736 17.1003H72.9734C73.0371 17.9298 73.3236 18.5998 73.8648 19.0784C74.3742 19.5569 75.0109 19.7803 75.775 19.7803C76.8574 19.7803 77.6533 19.3017 78.099 18.3765H81.2826C80.9324 19.4931 80.2957 20.4184 79.3406 21.1522C78.3855 21.886 77.2076 22.2369 75.8387 22.2369C74.7244 22.2369 73.7057 21.9817 72.8143 21.5031C71.9229 20.9926 71.2225 20.2907 70.7449 19.3974C70.2355 18.4722 70.0127 17.4194 70.0127 16.2389C70.0127 15.0265 70.2674 13.9737 70.7449 13.0485C71.2225 12.1232 71.9229 11.4213 72.8143 10.9428C73.7057 10.4642 74.7244 10.209 75.8705 10.209C76.9848 10.209 77.9717 10.4323 78.8312 10.9109C79.7227 11.3894 80.3912 12.0594 80.8687 12.9528C81.3463 13.8461 81.601 14.8351 81.601 15.9837C81.5373 16.3984 81.5055 16.7813 81.4736 17.1003ZM78.4811 15.1222C78.4811 14.3565 78.1945 13.7504 77.6533 13.3037C77.1121 12.857 76.4754 12.6337 75.7113 12.6337C74.9791 12.6337 74.3742 12.857 73.8648 13.3037C73.3555 13.7504 73.0689 14.3565 72.9416 15.1541H78.4811V15.1222Z" fill="#212529"/>
<path d="M93.508 11.5499C94.3676 12.4432 94.7814 13.6556 94.7814 15.2189V22.0783H91.8525V15.6018C91.8525 14.6765 91.6297 13.9746 91.1522 13.4642C90.6746 12.9537 90.0697 12.7304 89.2738 12.7304C88.4461 12.7304 87.8094 12.9856 87.3637 13.4642C86.8861 13.9746 86.6633 14.6765 86.6633 15.6018V22.0464H83.7344V10.4014H86.6633V11.869C87.0453 11.3585 87.5547 10.9756 88.1596 10.6885C88.7645 10.4014 89.433 10.2418 90.1652 10.2418C91.5342 10.2099 92.6484 10.6566 93.508 11.5499Z" fill="#212529"/>
<path d="M97.774 8.51853C97.4238 8.19949 97.2646 7.78474 97.2646 7.27427C97.2646 6.7957 97.4238 6.38095 97.774 6.03C98.1242 5.67905 98.5381 5.51953 99.0793 5.51953C99.5887 5.51953 100.034 5.67905 100.385 6.03C100.735 6.34904 100.894 6.7638 100.894 7.27427C100.894 7.75283 100.735 8.16759 100.385 8.51853C100.034 8.83758 99.6205 9.029 99.0793 9.029C98.5699 8.9971 98.1242 8.83758 97.774 8.51853ZM100.544 10.4009V22.0779H97.6148V10.4009H100.544Z" fill="#212529"/>
<path d="M113.246 11.5499C114.106 12.4432 114.52 13.6556 114.52 15.2189V22.0783H111.591V15.6018C111.591 14.6765 111.368 13.9746 110.89 13.4642C110.413 12.9537 109.808 12.7304 109.012 12.7304C108.184 12.7304 107.548 12.9856 107.102 13.4642C106.624 13.9746 106.402 14.6765 106.402 15.6018V22.0464H103.473V10.4014H106.402V11.869C106.784 11.3585 107.293 10.9756 107.898 10.6885C108.503 10.4014 109.171 10.2418 109.904 10.2418C111.272 10.2099 112.387 10.6566 113.246 11.5499Z" fill="#212529"/>
<path d="M126.331 19.2701H120.473L119.518 22.0777H116.43L121.714 7.33789H125.153L130.438 22.0777H127.318L126.331 19.2701ZM125.535 16.9092L123.402 10.7516L121.269 16.9092H125.535Z" fill="#0E6FFF"/>
<path d="M136.9 10.7514C137.569 10.4004 138.333 10.209 139.192 10.209C140.179 10.209 141.102 10.4642 141.898 10.9428C142.694 11.4213 143.331 12.1232 143.808 13.0485C144.286 13.9418 144.509 14.9946 144.509 16.207C144.509 17.4194 144.286 18.4722 143.808 19.3655C143.331 20.2907 142.694 20.9926 141.898 21.5031C141.102 22.0136 140.179 22.2688 139.192 22.2688C138.333 22.2688 137.569 22.0774 136.932 21.7264C136.295 21.3755 135.754 20.9288 135.34 20.3865V27.6287H132.411V10.4004H135.34V12.0913C135.722 11.549 136.231 11.1023 136.9 10.7514ZM141.071 14.3565C140.784 13.8461 140.402 13.4632 139.924 13.1761C139.447 12.9208 138.937 12.7613 138.396 12.7613C137.855 12.7613 137.378 12.8889 136.9 13.1761C136.422 13.4632 136.04 13.8461 135.754 14.3565C135.467 14.867 135.308 15.4732 135.308 16.1751C135.308 16.877 135.467 17.4832 135.754 17.9936C136.04 18.5041 136.422 18.9189 136.9 19.1741C137.378 19.4612 137.855 19.5888 138.396 19.5888C138.937 19.5888 139.447 19.4612 139.924 19.1741C140.402 18.887 140.784 18.5041 141.071 17.9617C141.357 17.4513 141.516 16.8132 141.516 16.1113C141.484 15.4732 141.357 14.867 141.071 14.3565Z" fill="#0E6FFF"/>
<path d="M151.163 10.7514C151.831 10.4004 152.595 10.209 153.455 10.209C154.442 10.209 155.365 10.4642 156.161 10.9428C156.957 11.4213 157.594 12.1232 158.071 13.0485C158.549 13.9418 158.771 14.9946 158.771 16.207C158.771 17.4194 158.549 18.4722 158.071 19.3655C157.594 20.2907 156.957 20.9926 156.161 21.5031C155.365 22.0136 154.442 22.2688 153.455 22.2688C152.595 22.2688 151.831 22.0774 151.195 21.7264C150.558 21.3755 150.017 20.9288 149.603 20.3865V27.6287H146.674V10.4004H149.603V12.0913C149.953 11.549 150.494 11.1023 151.163 10.7514ZM155.301 14.3565C155.015 13.8461 154.633 13.4632 154.155 13.1761C153.678 12.9208 153.168 12.7613 152.627 12.7613C152.086 12.7613 151.608 12.8889 151.131 13.1761C150.653 13.4632 150.271 13.8461 149.985 14.3565C149.698 14.867 149.539 15.4732 149.539 16.1751C149.539 16.877 149.698 17.4832 149.985 17.9936C150.271 18.5041 150.653 18.9189 151.131 19.1741C151.608 19.4293 152.086 19.5888 152.627 19.5888C153.168 19.5888 153.678 19.4612 154.155 19.1741C154.633 18.887 155.015 18.5041 155.301 17.9617C155.588 17.4513 155.747 16.8132 155.747 16.1113C155.747 15.4732 155.588 14.867 155.301 14.3565Z" fill="#0E6FFF"/>
<path d="M30.6314 5.77465C30.6314 5.29608 30.5996 4.81752 30.5678 4.37086C30.4404 3.1585 30.2176 2.00994 29.8355 0.893291C28.7213 0.574248 27.5434 0.382822 26.3336 0.319014C26.1107 0.319014 25.8879 0.287109 25.665 0.287109C21.59 0.287109 17.8971 1.91423 15.191 4.56228C14.1086 4.30705 13.0262 4.17943 11.8801 4.17943C8.79199 4.17943 5.92676 5.10466 3.53906 6.69987C2.55215 7.36986 1.62891 8.13556 0.833008 8.99698C1.0877 10.1774 1.46973 11.2941 1.9791 12.3469C3.82559 16.1754 7.23203 19.0787 11.3707 20.2911C12.676 24.1196 15.4457 27.2462 19.0432 28.9691C20.0619 29.4795 21.1762 29.8624 22.3223 30.1176C23.15 29.32 23.9141 28.3948 24.5508 27.4058C26.0471 25.0448 26.9385 22.2692 26.9385 19.2702C26.9385 18.1535 26.8111 17.0688 26.5883 16.0478C29.1033 13.3679 30.6314 9.73078 30.6314 5.77465ZM10.5748 15.4097C10.5748 15.8883 10.6066 16.3669 10.6385 16.8135C7.67773 15.4735 5.35371 13.0169 4.20762 9.9222C6.27695 8.23128 8.95117 7.17844 11.8482 7.17844C12.2303 7.17844 12.5805 7.21034 12.9625 7.24224C11.4662 9.60316 10.5748 12.4107 10.5748 15.4097ZM13.8221 17.7388C13.6629 16.973 13.5992 16.2073 13.5992 15.4097C13.5992 12.6022 14.5543 10.0498 16.1461 8.00795C19.4252 9.25221 22.0039 11.8684 23.1818 15.1545C21.1125 16.8454 18.4383 17.8983 15.5412 17.8983C14.9682 17.8345 14.3951 17.8026 13.8221 17.7388ZM21.3672 26.7039C18.5338 25.6191 16.2416 23.5453 14.8727 20.8654C15.0955 20.8654 15.3184 20.8973 15.5412 20.8973C18.6293 20.8973 21.4945 19.9721 23.8822 18.3768C23.9141 18.6959 23.9141 18.983 23.9141 19.3021C23.9141 22.0777 22.9908 24.6301 21.3672 26.7039ZM18.4701 5.71084C20.4758 4.21134 22.959 3.31802 25.665 3.31802C26.2699 3.31802 26.843 3.34992 27.3842 3.44563C27.5434 4.21134 27.607 4.97704 27.607 5.77465C27.607 8.35889 26.8111 10.7517 25.4104 12.6979C23.9459 9.66697 21.4945 7.17844 18.4701 5.71084Z" fill="#0E6FFF"/>
<path d="M11.8804 23.8328C11.8804 23.8328 11.753 22.5566 10.3841 21.2485C9.01515 19.9405 7.74171 19.8448 7.74171 19.8448C-1.14052 18.1857 0.355771 31.6493 0.355771 31.6493C0.355771 31.6493 13.8224 32.6703 11.8804 23.8328ZM3.221 28.6503C3.221 28.6503 2.99815 22.3333 7.13683 22.7799C7.13683 22.7799 7.74171 22.7799 8.34659 23.3542C8.95147 23.9285 8.95147 24.5347 8.95147 24.5347C9.52452 28.6503 3.221 28.6503 3.221 28.6503Z" fill="#0E6FFF"/>
</svg>
