<svg width="198" height="56" viewBox="0 0 198 56" fill="none" xmlns="http://www.w3.org/2000/svg">
<circle cx="28.5" cy="28" r="28" fill="#E0EDFF"/>
<path d="M41.5003 19.0819C41.5003 18.6781 41.4735 18.2742 41.4466 17.8973C41.3391 16.8742 41.1511 15.905 40.8287 14.9627C39.8884 14.6935 38.8944 14.5319 37.8735 14.4781C37.6855 14.4781 37.4974 14.4512 37.3093 14.4512C33.8706 14.4512 30.7542 15.8242 28.4707 18.0588C27.5573 17.8435 26.6439 17.7358 25.6767 17.7358C23.0708 17.7358 20.6529 18.5165 18.638 19.8627C17.8052 20.4281 17.0261 21.0742 16.3545 21.8011C16.5694 22.7973 16.8918 23.7396 17.3216 24.628C18.8798 27.8588 21.7544 30.3087 25.2469 31.3318C26.3483 34.5626 28.6856 37.201 31.7214 38.6548C32.5811 39.0856 33.5214 39.4087 34.4885 39.6241C35.187 38.951 35.8318 38.1702 36.3691 37.3356C37.6317 35.3433 38.384 33.001 38.384 30.4703C38.384 29.528 38.2765 28.6126 38.0884 27.7511C40.2108 25.4896 41.5003 22.4203 41.5003 19.0819ZM24.5752 27.2126C24.5752 27.6165 24.6021 28.0203 24.629 28.3972C22.1305 27.2665 20.1694 25.1934 19.2022 22.5819C20.9484 21.155 23.2051 20.2665 25.6499 20.2665C25.9722 20.2665 26.2678 20.2934 26.5901 20.3204C25.3275 22.3127 24.5752 24.6819 24.5752 27.2126ZM27.3155 29.178C27.1812 28.5318 27.1274 27.8857 27.1274 27.2126C27.1274 24.8434 27.9334 22.6896 29.2767 20.9665C32.0438 22.0165 34.2198 24.2242 35.2139 26.9972C33.4676 28.4241 31.2109 29.3126 28.7662 29.3126C28.2826 29.2588 27.7991 29.2318 27.3155 29.178ZM33.6825 36.7433C31.2915 35.8279 29.3572 34.0779 28.202 31.8164C28.3901 31.8164 28.5782 31.8433 28.7662 31.8433C31.3721 31.8433 33.79 31.0626 35.8049 29.7164C35.8318 29.9857 35.8318 30.228 35.8318 30.4972C35.8318 32.8395 35.0527 34.9933 33.6825 36.7433ZM31.2378 19.0281C32.9303 17.7627 35.0258 17.0088 37.3093 17.0088C37.8198 17.0088 38.3034 17.0358 38.7601 17.1165C38.8944 17.7627 38.9481 18.4088 38.9481 19.0819C38.9481 21.2627 38.2765 23.2819 37.0944 24.9242C35.8586 22.3665 33.79 20.2665 31.2378 19.0281Z" fill="#0E6FFF"/>
<path d="M25.6765 34.3208C25.6765 34.3208 25.569 33.2439 24.4138 32.1401C23.2586 31.0362 22.184 30.9555 22.184 30.9555C14.6886 29.5555 15.9513 40.9169 15.9513 40.9169C15.9513 40.9169 27.3153 41.7784 25.6765 34.3208ZM18.3692 38.3862C18.3692 38.3862 18.1811 33.0554 21.6736 33.4324C21.6736 33.4324 22.184 33.4324 22.6944 33.917C23.2049 34.4016 23.2049 34.9131 23.2049 34.9131C23.6885 38.3862 18.3692 38.3862 18.3692 38.3862Z" fill="#0E6FFF"/>
<circle cx="169.5" cy="28" r="28" fill="#FFE1E1"/>
<path d="M183.848 20.4586C183.502 19.1731 182.486 18.1563 181.2 17.8109C178.878 17.1777 169.535 17.1777 169.535 17.1777C169.535 17.1777 160.191 17.1969 157.869 17.8301C156.584 18.1754 155.567 19.1923 155.221 20.4778C154.607 22.7994 154.607 27.6536 154.607 27.6536C154.607 27.6536 154.607 32.5078 155.241 34.8486C155.586 36.1341 156.603 37.151 157.888 37.4963C160.21 38.1295 169.554 38.1295 169.554 38.1295C169.554 38.1295 178.898 38.1295 181.219 37.4963C182.505 37.151 183.522 36.1341 183.867 34.8486C184.5 32.527 184.5 27.6536 184.5 27.6536C184.5 27.6536 184.481 22.7994 183.848 20.4586Z" fill="#FF0000"/>
<path d="M166.561 32.6063L174.312 28.1166L166.561 23.627V32.6063Z" fill="white"/>
<line x1="65.5" y1="27" x2="131.5" y2="27" stroke="#EBEBEB" stroke-width="2" stroke-linecap="round" stroke-dasharray="6 6"/>
<line x1="65.5" y1="27" x2="131.5" y2="27" stroke="black" stroke-opacity="0.08" stroke-width="2" stroke-linecap="round" stroke-dasharray="6 6"/>
</svg>
