<svg width="19" height="19" viewBox="0 0 19 19" fill="none" xmlns="http://www.w3.org/2000/svg">
<g clip-path="url(#clip0_9097_121033)">
<path d="M5.23252 7.8081C5.87111 8.96578 6.60711 10.0768 7.56268 11.09C8.52134 12.1094 9.71348 13.0371 11.2566 13.8296C11.371 13.8855 11.4793 13.8855 11.5767 13.8467C11.7236 13.7908 11.8736 13.668 12.0204 13.5204C12.1349 13.4054 12.2771 13.222 12.4256 13.0216C13.0193 12.2368 13.7538 11.2625 14.7913 11.7504C14.8145 11.7613 14.8315 11.7737 14.8547 11.7831L18.3151 13.783C18.3259 13.7892 18.3383 13.8001 18.3476 13.8063C18.8037 14.1217 18.9924 14.6081 18.997 15.1598C18.997 15.7207 18.7914 16.3516 18.4898 16.8846C18.0909 17.5886 17.5034 18.0548 16.8261 18.3624C16.1813 18.6608 15.4639 18.8209 14.7743 18.9234C13.6919 19.0835 12.6776 18.9809 11.6401 18.6608C10.6257 18.3453 9.60369 17.8248 8.48732 17.1317L8.40537 17.0789C7.89357 16.7572 7.34002 16.4138 6.7973 16.0082C4.81195 14.5009 2.78794 12.3238 1.46901 9.92767C0.363459 7.91687 -0.239568 5.74602 0.0897779 3.67773C0.272232 2.54335 0.756201 1.51154 1.60044 0.830913C2.33644 0.234201 3.32757 -0.0921265 4.61094 0.022865C4.75783 0.0337425 4.88926 0.119209 4.95884 0.246632L7.17767 4.01649C7.50238 4.43916 7.54258 4.85872 7.36476 5.27828C7.21787 5.6217 6.921 5.93871 6.51588 6.23396C6.39683 6.33652 6.25457 6.44063 6.10459 6.54941C5.60825 6.91147 5.04388 7.32948 5.23716 7.82053L5.23252 7.8081Z" fill="#0E6FFF"/>
</g>
<defs>
<clipPath id="clip0_9097_121033">
<rect width="19" height="19" fill="white"/>
</clipPath>
</defs>
</svg>
